<?xml version="1.0" encoding="UTF-8" standalone="no"?>
<svg
   xmlns:dc="http://purl.org/dc/elements/1.1/"
   xmlns:cc="http://creativecommons.org/ns#"
   xmlns:rdf="http://www.w3.org/1999/02/22-rdf-syntax-ns#"
   xmlns:svg="http://www.w3.org/2000/svg"
   xmlns="http://www.w3.org/2000/svg"
   xmlns:sodipodi="http://sodipodi.sourceforge.net/DTD/sodipodi-0.dtd"
   xmlns:inkscape="http://www.inkscape.org/namespaces/inkscape"
   width="11.319745mm"
   height="11.319796mm"
   viewBox="0 0 11.319745 11.319796"
   version="1.1"
   id="svg8"
   inkscape:version="1.0.2 (e86c870, 2021-01-15)"
   sodipodi:docname="wallet.svg">
  <defs
     id="defs2" />
  <sodipodi:namedview
     id="base"
     pagecolor="#ffffff"
     bordercolor="#666666"
     borderopacity="1.0"
     inkscape:pageopacity="0.0"
     inkscape:pageshadow="2"
     inkscape:zoom="0.98994949"
     inkscape:cx="54.005016"
     inkscape:cy="67.914537"
     inkscape:document-units="mm"
     inkscape:current-layer="layer1"
     inkscape:document-rotation="0"
     showgrid="false"
     inkscape:window-width="1366"
     inkscape:window-height="728"
     inkscape:window-x="0"
     inkscape:window-y="0"
     inkscape:window-maximized="1" />
  <metadata
     id="metadata5">
    <rdf:RDF>
      <cc:Work
         rdf:about="">
        <dc:format>image/svg+xml</dc:format>
        <dc:type
           rdf:resource="http://purl.org/dc/dcmitype/StillImage" />
        <dc:title></dc:title>
      </cc:Work>
    </rdf:RDF>
  </metadata>
  <g
     inkscape:label="Layer 1"
     inkscape:groupmode="layer"
     id="layer1"
     transform="translate(-96.287595,-90.721477)">
    <g
       id="layer1-3"
       transform="matrix(0.26458333,0,0,0.26458333,14.351705,-16.297045)">
      <g
         style="fill:#77ecfd;fill-opacity:1;stroke-linejoin:miter"
         id="g165">
        <path
           d="m 331.08704,404.47946 q -8.89484,0.14719 -15.13654,6.25784 -6.18408,6.3904 -6.27154,15.12952 0.14999,8.89081 6.2658,15.133 6.28424,6.11788 15.04831,6.26312 8.89653,-0.12192 15.15448,-6.21384 6.20273,-6.37408 6.3147,-15.1116 -0.12503,-8.89243 -6.22199,-15.151 -6.26834,-6.13635 -15.03046,-6.30582"
           id="path163" />
      </g>
      <g
         style="fill:#000000;fill-opacity:0.0745098;stroke-linejoin:miter"
         id="g169">
        <path
           d="m 338.49326,412.20236 q -4.8935,12.81144 -8.05603,17.1116 -3.07331,4.60934 -9.96923,8.6218 l -0.383,3.06348 10.04067,6.23456 h 0.003 q 0.42898,0.0219 0.8641,0.0291 8.89653,-0.12192 15.15448,-6.21384 6.20273,-6.37408 6.3147,-15.1116 -0.0713,-5.07123 -2.08485,-9.28586 h 0.004 l -11.866,-4.36764 z"
           id="path167" />
      </g>
      <g
         id="g235">
        <g
           style="fill:#ffad53;fill-opacity:1;stroke-linejoin:miter"
           id="g173">
          <path
             d="m 319.4358,423.78458 0.63183,16.62628 0.0447,-0.002 22.83216,-0.86777 -0.61206,-16.10668 -0.0198,-0.51957 -22.83216,0.86774"
             id="path171" />
        </g>
        <g
           id="g191">
          <g
             style="fill:#26785f;fill-opacity:1;stroke-linejoin:miter"
             id="g177">
            <path
               d="m 338.25076,412.4193 c 0.0235,-0.17852 0.0352,-0.2743 0.0331,-0.2763 -0.0173,-0.0101 -2.09683,-0.31243 -4.626,-0.67156 l -4.59767,-0.65624 -1.34032,9.2562 -1.33643,9.25697 4.63445,0.66543 4.63454,0.66532 1.32748,-9.24689 c 0.62051,-4.32281 1.13768,-7.98288 1.27084,-8.99293 z m -2.25936,2.69795 -0.86356,6.01755 -0.86392,6.0177 z m -5.9538,5.32875 c 3.3e-4,-0.003 7.6e-4,-0.006 10e-4,-0.009 4.5e-4,-0.003 7.5e-4,-0.006 0.001,-0.009 z m 0.38998,-6.10854 -1.72608,12.0239 0.86323,-6.01366 z"
               id="path175" />
          </g>
          <g
             style="fill:#26785f;fill-opacity:1;stroke-linejoin:miter"
             id="g181">
            <path
               d="m 338.56656,412.05637 c -0.0174,-0.01 -2.0968,-0.31235 -4.62613,-0.67163 l -4.59763,-0.65619 -1.34027,9.25631 -1.33645,9.2569 4.63437,0.66541 4.63449,0.66533 1.32751,-9.24685 c 0.73015,-5.08691 1.31732,-9.25592 1.30411,-9.26928 z m -4.24088,15.01947 c -0.45306,0.0181 -0.80378,0.19486 -1.08528,0.54796 -0.10188,0.12922 -0.17866,0.26948 -0.21608,0.39656 -0.027,0.10984 -0.0711,0.2055 -0.0911,0.21394 -0.0769,0.0345 -2.7019,-0.34245 -2.73267,-0.39226 -0.0114,-0.0243 -0.0231,-0.12811 -0.0235,-0.23038 0.005,-0.24166 -0.15304,-0.64648 -0.3249,-0.84526 -0.1795,-0.19984 -0.43898,-0.36955 -0.67525,-0.43748 l -0.19263,-0.0542 0.86295,-6.0137 0.86293,-6.01002 0.25157,-0.013 c 0.13727,-0.007 0.31509,-0.0341 0.39465,-0.0607 0.37046,-0.12839 0.76151,-0.50742 0.86678,-0.84425 0.0228,-0.08 0.0561,-0.181 0.0737,-0.22402 l 0.027,-0.083 1.37183,0.19693 c 1.53479,0.22028 1.38385,0.16452 1.38467,0.5015 0.003,0.24258 0.10993,0.52645 0.28769,0.764 0.19058,0.2544 0.55006,0.49128 0.79836,0.52698 l 0.10746,0.0154 -0.86364,6.01746 -0.86386,6.01755 z"
               id="path179" />
          </g>
          <g
             style="fill:#26785f;fill-opacity:1;stroke-linejoin:miter"
             id="g185">
            <path
               d="m 334.96356,420.57544 c -0.0182,-0.42627 -0.17156,-0.88744 -0.41281,-1.23612 -0.23563,-0.33666 -0.47745,-0.54904 -0.84918,-0.75375 -0.25589,-0.14277 -0.31777,-0.15917 -0.74427,-0.22031 -0.41525,-0.0598 -0.49468,-0.0596 -0.7564,-0.003 -0.56937,0.11874 -1.04154,0.40298 -1.38138,0.81952 -0.64304,0.78949 -0.69357,1.95901 -0.1232,2.7825 0.66778,0.96243 1.88688,1.30032 2.92642,0.80618 0.83283,-0.39514 1.37732,-1.2894 1.34082,-2.19528 z"
               id="path183" />
          </g>
          <g
             style="fill:#2aaf86;fill-opacity:1;stroke-linejoin:miter"
             id="g189">
            <path
               d="m 334.94293,420.97263 c -0.10916,0.76097 -0.60993,1.46109 -1.32019,1.79809 -1.03954,0.49414 -2.25864,0.15625 -2.92642,-0.80618 -0.33099,-0.47791 -0.45309,-1.07234 -0.37128,-1.64139 0.059,-0.4115 0.22473,-0.80975 0.49448,-1.14111 0.33984,-0.41654 0.81201,-0.70078 1.38138,-0.81952 0.26172,-0.0569 0.34115,-0.057 0.7564,0.003 0.4265,0.0611 0.48838,0.0775 0.74427,0.22031 0.37173,0.20471 0.61355,0.41709 0.84918,0.75375 0.24125,0.34868 0.39462,0.80985 0.41281,1.23612 0.005,0.13321 -0.002,0.2662 -0.0206,0.39719 z m 1.33093,-5.94181 -0.10746,-0.0154 c -0.2483,-0.0357 -0.60778,-0.27258 -0.79836,-0.52698 -0.17776,-0.23755 -0.28464,-0.52142 -0.28769,-0.764 -8.2e-4,-0.33698 0.15012,-0.28122 -1.38467,-0.5015 l -1.37183,-0.19693 -0.027,0.083 c -0.0176,0.043 -0.051,0.14407 -0.0737,0.22402 -0.10527,0.33683 -0.49632,0.71586 -0.86678,0.84425 -0.0796,0.0266 -0.25738,0.054 -0.39465,0.0607 l -0.25157,0.013 -1.72588,12.02372 0.19263,0.0542 c 0.23627,0.0679 0.49575,0.23764 0.67525,0.43748 0.17186,0.19878 0.32942,0.6036 0.3249,0.84526 4.3e-4,0.10227 0.0121,0.20604 0.0235,0.23038 0.0308,0.0498 2.65577,0.42679 2.73267,0.39226 0.02,-0.008 0.0641,-0.1041 0.0911,-0.21394 0.0374,-0.12708 0.1142,-0.26734 0.21608,-0.39656 0.2815,-0.3531 0.63222,-0.52984 1.08528,-0.54796 l 0.22068,-0.01 z"
               id="path187" />
          </g>
        </g>
        <g
           id="g209">
          <g
             style="fill:#26785f;fill-opacity:1;stroke-linejoin:miter"
             id="g195">
            <path
               d="m 327.9353,411.74622 c -0.0689,-0.16639 -0.10678,-0.25516 -0.10946,-0.25582 -0.0201,-4e-5 -1.97226,0.77773 -4.34226,1.73128 l -4.30975,1.73052 3.46747,8.68638 3.47113,8.68492 4.34613,-1.74098 4.34637,-1.74109 -3.47393,-8.67181 c -1.62397,-4.05392 -3.00605,-7.48212 -3.3957,-8.4234 z m -0.6077,3.46615 2.2608,5.6431 2.2606,5.64337 z m -2.49188,7.59171 c -10e-4,-0.003 -0.002,-0.006 -0.003,-0.009 -10e-4,-0.003 -0.002,-0.005 -0.004,-0.008 z m -2.71652,-5.48511 4.51715,11.27597 -2.25931,-5.63964 z"
               id="path193" />
          </g>
          <g
             style="fill:#26785f;fill-opacity:1;stroke-linejoin:miter"
             id="g199">
            <path
               d="m 328.02728,411.2739 c -0.0201,3e-5 -1.9721,0.77786 -4.34218,1.73147 l -4.30983,1.73056 3.46747,8.68627 3.47113,8.685 4.3461,-1.741 4.34626,-1.74096 -3.47379,-8.67181 c -1.91104,-4.77043 -3.48706,-8.67453 -3.50516,-8.67953 z m 3.83689,15.12765 c -0.38324,0.24228 -0.59861,0.57071 -0.66593,1.01727 -0.0236,0.16285 -0.02,0.3227 0.0112,0.45145 0.0316,0.10863 0.0412,0.2135 0.0281,0.23087 -0.0494,0.0684 -2.51114,1.05436 -2.56262,1.0267 -0.0221,-0.0154 -0.0841,-0.0995 -0.1356,-0.18781 -0.11694,-0.21151 -0.45583,-0.48336 -0.70397,-0.56963 -0.2554,-0.0833 -0.56501,-0.10053 -0.80359,-0.0413 l -0.19391,0.0495 -2.25953,-5.63956 -2.2577,-5.63624 0.21135,-0.13704 c 0.11555,-0.0744 0.25585,-0.1871 0.31137,-0.24988 0.25672,-0.29642 0.40576,-0.82028 0.32856,-1.16461 -0.0202,-0.0805 -0.0418,-0.18475 -0.0481,-0.2308 l -0.0181,-0.0854 1.28648,-0.51532 c 1.4394,-0.57666 1.28078,-0.54947 1.45003,-0.258 0.12381,0.20844 0.35837,0.40085 0.63101,0.51764 0.29233,0.12503 0.72214,0.15048 0.95511,0.0573 l 0.10077,-0.0404 2.26074,5.64306 2.26056,5.64326 z"
               id="path197" />
          </g>
          <g
             style="fill:#26785f;fill-opacity:1;stroke-linejoin:miter"
             id="g203">
            <path
               d="m 329.1665,420.45322 c -0.22885,-0.36012 -0.59234,-0.6828 -0.97558,-0.86412 -0.37235,-0.17376 -0.68802,-0.23687 -1.11228,-0.2282 -0.29296,0.004 -0.35482,0.0211 -0.75476,0.1812 -0.3894,0.156 -0.45813,0.19585 -0.65634,0.37596 -0.43378,0.3876 -0.70059,0.86978 -0.78659,1.40048 -0.16215,1.00516 0.37885,2.04331 1.28452,2.47126 1.05963,0.49963 2.28433,0.1827 2.93756,-0.765 0.52362,-0.75866 0.54803,-1.80532 0.0635,-2.57158 z"
               id="path201" />
          </g>
          <g
             style="fill:#2aaf86;fill-opacity:1;stroke-linejoin:miter"
             id="g207">
            <path
               d="m 329.3472,420.80756 c 0.28595,0.7135 0.20233,1.57016 -0.24417,2.21724 -0.65323,0.9477 -1.87793,1.26463 -2.93756,0.765 -0.52561,-0.24842 -0.9285,-0.70215 -1.14217,-1.2358 -0.1546,-0.3859 -0.2103,-0.81364 -0.14235,-1.23546 0.086,-0.5307 0.35281,-1.01288 0.78659,-1.40048 0.19821,-0.18011 0.26694,-0.21996 0.65634,-0.37596 0.39994,-0.16014 0.4618,-0.17687 0.75476,-0.1812 0.42426,-0.009 0.73993,0.0544 1.11228,0.2282 0.38324,0.18132 0.74673,0.504 0.97558,0.86412 0.0712,0.11268 0.13135,0.23148 0.1807,0.35434 z m -1.81818,-5.81128 -0.10077,0.0404 c -0.23297,0.0932 -0.66278,0.0677 -0.95511,-0.0573 -0.27264,-0.11679 -0.5072,-0.3092 -0.63101,-0.51764 -0.16925,-0.29147 -0.0106,-0.31866 -1.45003,0.258 l -1.28648,0.51532 0.0181,0.0854 c 0.006,0.046 0.0279,0.15026 0.0481,0.2308 0.0772,0.34433 -0.0718,0.86819 -0.32856,1.16461 -0.0555,0.0628 -0.19582,0.17545 -0.31137,0.24988 l -0.21135,0.13704 4.51723,11.2758 0.19391,-0.0495 c 0.23858,-0.0593 0.54819,-0.042 0.80359,0.0413 0.24814,0.0863 0.58703,0.35812 0.70397,0.56963 0.0515,0.0884 0.11347,0.1724 0.1356,0.18781 0.0515,0.0277 2.51324,-0.95834 2.56262,-1.0267 0.0131,-0.0174 0.003,-0.12224 -0.0281,-0.23087 -0.0311,-0.12875 -0.0347,-0.2886 -0.0112,-0.45145 0.0673,-0.44656 0.28269,-0.77499 0.66593,-1.01727 l 0.18615,-0.11895 z"
               id="path205" />
          </g>
        </g>
        <g
           style="fill:#ffad53;fill-opacity:1;stroke-linejoin:miter"
           id="g213">
          <path
             d="m 319.4587,424.38748 0.63185,16.62628 0.0447,-0.002 22.83216,-0.8677 -0.63181,-16.62631 -22.87683,0.86944"
             id="path211" />
        </g>
        <g
           style="fill:#c97a23;fill-opacity:0.160784;stroke-linejoin:miter"
           id="g217">
          <path
             d="m 321.89346,426.21933 0.48581,12.78307 0.0354,-0.001 18.1181,-0.68857 -0.48583,-12.78308 -18.15351,0.68991"
             id="path215" />
        </g>
        <g
           style="fill:#c97a23;fill-opacity:1;stroke-linejoin:miter"
           id="g221">
          <path
             d="m 338.10608,429.61932 0.14852,3.90828 0.009,-3.5e-4 4.4133,-0.16772 -0.1485,-3.90827 -4.42202,0.16806"
             id="path219" />
        </g>
        <g
           style="fill:#afa396;fill-opacity:1;stroke-linejoin:miter"
           id="g225">
          <path
             d="m 339.59827,430.17926 q -0.49457,0.0388 -0.82639,0.40466 -0.32065,0.37116 -0.29834,0.87223 0.0382,0.49325 0.40543,0.82655 0.37048,0.31938 0.86911,0.29787 0.49469,-0.0379 0.82705,-0.40337 0.32129,-0.37083 0.29963,-0.87193 -0.0374,-0.49332 -0.40412,-0.82703 -0.36996,-0.31991 -0.86856,-0.29922"
             id="path223" />
        </g>
        <g
           style="fill:#4a2700;fill-opacity:0.117647;stroke-linejoin:miter"
           id="g229">
          <path
             d="m 319.4358,423.78458 0.63183,16.62628 0.0229,0.6029 1.36285,-0.0518 -0.6548,-17.22928 z"
             id="path227" />
        </g>
        <g
           style="fill:#4a2700;fill-opacity:0.0666667;stroke-linejoin:miter"
           id="g233">
          <path
             d="m 338.2116,431.50522 0.0774,2.03618 1.05054,-0.0399 3.50766,-0.13336 -0.0773,-2.03616 z"
             id="path231" />
        </g>
      </g>
    </g>
  </g>
</svg>
